# xmcd
#
# Track frame offsets: 
#        150
#        19108
#        37744
#        53927
#        72164
#        84210
#        97564
#        113261
#        131239
#        148363
#        165785
#        182501
#        202477
#        234647
#        252868
#        274749
#        291865
#        309216
#
# Disc length: 4307 seconds
#
# Revision: 0
# Processed by: cddbd v1.5.2PL0 Copyright (c) Steve Scherf et al.
# Submitted via: ExactAudioCopyFreeDBPlugin 1.0
#
DISCID=ed10d112
DTITLE=Piotr Bukartyk - Z czwartku na piatek
DYEAR=1900
DGENRE=Ballad
TTITLE0=Prozak
TTITLE1=W Warszawie sen o slawie
TTITLE2=Niestety, trzeba miec ambicje
TTITLE3=Sznurek
TTITLE4=Swiat nie chce tradycji (mamusia)
TTITLE5=Ach, ach, ach (synus)
TTITLE6=All you need is milosc
TTITLE7=W sprawie sztuki filmowej
TTITLE8=Kobiety jak te kwiaty
TTITLE9=W zyciu liczy sie porzadek
TTITLE10=Przygoda z karlem
TTITLE11=Pryszcz na nosie
TTITLE12=Inne kraje
TTITLE13=Luz i zapal
TTITLE14=Wizja sniadaniowa
TTITLE15=W kostiumie
TTITLE16=Anonimowa zolta raczka
TTITLE17=Kolka jelitowa
EXTD=
EXTT0=
EXTT1=
EXTT2=
EXTT3=
EXTT4=
EXTT5=
EXTT6=
EXTT7=
EXTT8=
EXTT9=
EXTT10=
EXTT11=
EXTT12=
EXTT13=
EXTT14=
EXTT15=
EXTT16=
EXTT17=
PLAYORDER=
